<svg width="48" height="48" viewBox="-20 -20 40 40" fill="none" xmlns="http://www.w3.org/2000/svg">
  <defs>
    <linearGradient id="og" x1="0%" y1="0%" x2="100%" y2="100%">
      <stop offset="0%" style="stop-color:#22c55e"/>
      <stop offset="50%" style="stop-color:#10b981"/>
      <stop offset="100%" style="stop-color:#059669"/>
    </linearGradient>
  </defs>
  <path d="M0 -16 L11 -8 L13 0 L11 11 L0 16 L-11 11 L-13 0 L-11 -8 Z"
    stroke="url(#og)" stroke-width="3" fill="none" stroke-linejoin="miter"/>
  <path d="M0 -16 L-2 -19 L-1 -18 L0 -19 L1 -18 L2 -19 Z"
    fill="url(#og)" stroke="#000000" stroke-width="0.3"/>
  <circle cx="-0.6" cy="-18" r="0.4" fill="#000000"/>
  <circle cx="0.6" cy="-18" r="0.4" fill="#000000"/>
  <path d="M0 -16 L0 -10" stroke="url(#og)" stroke-width="2.2"/>
  <path d="M-4 0 L-2 0 M4 0 L2 0 M0 -4 L0 -2 M0 4 L0 2" stroke="#FFFFFF" stroke-width="0.6" stroke-linecap="round"/>
  <circle cx="0" cy="0" r="1.5" fill="none" stroke="#FFFFFF" stroke-width="0.6"/>
  <circle cx="0" cy="0" r="0.8" fill="#22c55e"/>
  <path d="M-3 -3 L-3.5 -3 L-3.5 -3.5 M3 -3 L3.5 -3 L3.5 -3.5 M3 3 L3.5 3 L3.5 3.5 M-3 3 L-3.5 3 L-3.5 3.5"
    stroke="#22c55e" stroke-width="0.5" stroke-linecap="round"/>
</svg>
